<mxfile host="app.diagrams.net" modified="2023-09-22T11:43:45.482Z" agent="Mozilla/5.0 (Windows NT 10.0; Win64; x64; rv:109.0) Gecko/20100101 Firefox/117.0" etag="aq7KnmpKfUTr14MH83jP" version="21.8.0" type="device">
  <diagram name="Pagina-1" id="-Q2UkjJwC-Qbk6ctqpnB">
    <mxGraphModel dx="1290" dy="558" grid="1" gridSize="10" guides="1" tooltips="1" connect="1" arrows="1" fold="1" page="1" pageScale="1" pageWidth="827" pageHeight="1169" math="0" shadow="0">
      <root>
        <mxCell id="0" />
        <mxCell id="1" parent="0" />
        <mxCell id="xNjNciee7jOgvN7jqE_8-21" value="" style="rounded=0;whiteSpace=wrap;html=1;" vertex="1" parent="1">
          <mxGeometry x="120" y="20" width="910" height="540" as="geometry" />
        </mxCell>
        <mxCell id="xNjNciee7jOgvN7jqE_8-1" value="Utente" style="shape=umlActor;verticalLabelPosition=bottom;verticalAlign=top;html=1;" vertex="1" parent="1">
          <mxGeometry x="70" y="220" width="30" height="60" as="geometry" />
        </mxCell>
        <mxCell id="xNjNciee7jOgvN7jqE_8-2" value="&lt;div&gt;Login&lt;/div&gt;" style="ellipse;whiteSpace=wrap;html=1;" vertex="1" parent="1">
          <mxGeometry x="160" y="240" width="80" height="50" as="geometry" />
        </mxCell>
        <mxCell id="xNjNciee7jOgvN7jqE_8-3" value="&lt;div&gt;Logout&lt;/div&gt;" style="ellipse;whiteSpace=wrap;html=1;" vertex="1" parent="1">
          <mxGeometry x="180" y="360" width="80" height="50" as="geometry" />
        </mxCell>
        <mxCell id="xNjNciee7jOgvN7jqE_8-4" value="&lt;div&gt;Visualizzazione&lt;/div&gt;&lt;div&gt;form informazioni base per censimento ponte&lt;br&gt;&lt;/div&gt;" style="ellipse;whiteSpace=wrap;html=1;" vertex="1" parent="1">
          <mxGeometry x="340" y="225" width="130" height="80" as="geometry" />
        </mxCell>
        <mxCell id="xNjNciee7jOgvN7jqE_8-13" value="&lt;div&gt;Visualizzazione&lt;/div&gt;&lt;div&gt;tabella per numero componenti ponte&lt;br&gt;&lt;/div&gt;" style="ellipse;whiteSpace=wrap;html=1;" vertex="1" parent="1">
          <mxGeometry x="586" y="225" width="130" height="80" as="geometry" />
        </mxCell>
        <mxCell id="xNjNciee7jOgvN7jqE_8-14" value="&lt;div&gt;Visualizzazione&lt;/div&gt;&lt;div&gt;form compilazione componenti ponte&lt;br&gt;&lt;/div&gt;" style="ellipse;whiteSpace=wrap;html=1;" vertex="1" parent="1">
          <mxGeometry x="849" y="225" width="130" height="80" as="geometry" />
        </mxCell>
        <mxCell id="xNjNciee7jOgvN7jqE_8-15" value="" style="endArrow=none;html=1;rounded=0;entryX=1;entryY=0.3333333333333333;entryDx=0;entryDy=0;entryPerimeter=0;exitX=0;exitY=0.5;exitDx=0;exitDy=0;" edge="1" parent="1" source="xNjNciee7jOgvN7jqE_8-2" target="xNjNciee7jOgvN7jqE_8-1">
          <mxGeometry width="50" height="50" relative="1" as="geometry">
            <mxPoint x="60" y="440" as="sourcePoint" />
            <mxPoint x="110" y="390" as="targetPoint" />
          </mxGeometry>
        </mxCell>
        <mxCell id="xNjNciee7jOgvN7jqE_8-16" value="" style="endArrow=none;html=1;rounded=0;entryX=1;entryY=1;entryDx=0;entryDy=0;entryPerimeter=0;exitX=0;exitY=0;exitDx=0;exitDy=0;" edge="1" parent="1" source="xNjNciee7jOgvN7jqE_8-3" target="xNjNciee7jOgvN7jqE_8-1">
          <mxGeometry width="50" height="50" relative="1" as="geometry">
            <mxPoint x="170" y="275" as="sourcePoint" />
            <mxPoint x="110" y="250" as="targetPoint" />
          </mxGeometry>
        </mxCell>
        <mxCell id="xNjNciee7jOgvN7jqE_8-17" value="&amp;lt;&amp;lt;include&amp;gt;&amp;gt;" style="endArrow=open;endSize=12;dashed=1;html=1;rounded=0;exitX=0.5;exitY=1;exitDx=0;exitDy=0;entryX=0.5;entryY=0;entryDx=0;entryDy=0;" edge="1" parent="1" source="xNjNciee7jOgvN7jqE_8-2" target="xNjNciee7jOgvN7jqE_8-3">
          <mxGeometry width="160" relative="1" as="geometry">
            <mxPoint x="170" y="480" as="sourcePoint" />
            <mxPoint x="330" y="480" as="targetPoint" />
          </mxGeometry>
        </mxCell>
        <mxCell id="xNjNciee7jOgvN7jqE_8-18" value="&amp;lt;&amp;lt;include&amp;gt;&amp;gt;" style="endArrow=open;endSize=12;dashed=1;html=1;rounded=0;exitX=1;exitY=0.5;exitDx=0;exitDy=0;entryX=0;entryY=0.5;entryDx=0;entryDy=0;" edge="1" parent="1" source="xNjNciee7jOgvN7jqE_8-2" target="xNjNciee7jOgvN7jqE_8-4">
          <mxGeometry width="160" relative="1" as="geometry">
            <mxPoint x="210" y="300" as="sourcePoint" />
            <mxPoint x="230" y="370" as="targetPoint" />
          </mxGeometry>
        </mxCell>
        <mxCell id="xNjNciee7jOgvN7jqE_8-19" value="&amp;lt;&amp;lt;include&amp;gt;&amp;gt;" style="endArrow=open;endSize=12;dashed=1;html=1;rounded=0;exitX=1;exitY=0.5;exitDx=0;exitDy=0;entryX=0;entryY=0.5;entryDx=0;entryDy=0;" edge="1" parent="1" source="xNjNciee7jOgvN7jqE_8-4" target="xNjNciee7jOgvN7jqE_8-13">
          <mxGeometry width="160" relative="1" as="geometry">
            <mxPoint x="250" y="275" as="sourcePoint" />
            <mxPoint x="350" y="275" as="targetPoint" />
          </mxGeometry>
        </mxCell>
        <mxCell id="xNjNciee7jOgvN7jqE_8-20" value="&amp;lt;&amp;lt;include&amp;gt;&amp;gt;" style="endArrow=open;endSize=12;dashed=1;html=1;rounded=0;exitX=1;exitY=0.5;exitDx=0;exitDy=0;entryX=0;entryY=0.5;entryDx=0;entryDy=0;" edge="1" parent="1" source="xNjNciee7jOgvN7jqE_8-13" target="xNjNciee7jOgvN7jqE_8-14">
          <mxGeometry width="160" relative="1" as="geometry">
            <mxPoint x="480" y="275" as="sourcePoint" />
            <mxPoint x="596" y="275" as="targetPoint" />
          </mxGeometry>
        </mxCell>
        <mxCell id="xNjNciee7jOgvN7jqE_8-22" value="Sistema" style="text;html=1;strokeColor=none;fillColor=none;align=center;verticalAlign=middle;whiteSpace=wrap;rounded=0;" vertex="1" parent="1">
          <mxGeometry x="340" y="70" width="60" height="30" as="geometry" />
        </mxCell>
      </root>
    </mxGraphModel>
  </diagram>
</mxfile>
